<?xml version="1.0" standalone="no"?>
<!DOCTYPE svg PUBLIC "-//W3C//DTD SVG 20010904//EN"
 "http://www.w3.org/TR/2001/REC-SVG-20010904/DTD/svg10.dtd">
<svg version="1.0" xmlns="http://www.w3.org/2000/svg"
 width="476.000000pt" height="143.000000pt" viewBox="0 0 476.000000 143.000000"
 preserveAspectRatio="xMidYMid meet">

<g transform="translate(0.000000,143.000000) scale(0.100000,-0.100000)"
fill="#00467F" stroke="none">

<!-- the yellow stripe -->
<rect width="495" height="1420" fill="#FFD24F"/>

<!-- the red stripe -->
<rect fill="#EE3943" width="247" height="1420"/>

<!-- the blue rectangle with the stars -->
<!-- <path stroke="green" stroke-width="1" d="
  M490 710 l0 -710 695 0 695 0 0 710 0 710 -695 0 -695 0 0 -710z

m1082 310 l33 -1 -27 -22 c-25 -21 -27 -26 -18 -57 6 -19 10 -36 10 -38 0 -2 -13 6 -29 17 -36 26 -37 26 -68 1 -32 -25 -36 -22 -21 20 10 31 9 35 -18 57 l-29 23 37 0 c35 0 38 3 50 41 l12 42 18 -42 c15 -36 21 -41 50 -41z
m-214 -160 l42 -5 -30 -20 c-33 -22 -34 -26 -20 -73 l9 -34 -33 26 -34 25 -27 -20 c-32 -26 -41 -20 -27 20 10 27 8 32 -21 55 l-32 25 43 1 c23 0 42 4 42 9 0 5 5 22 11 38 l11 28 12 -35 c11 -31 17 -36 54 -40z
m265 -90 l42 0 -32 -21 c-36 -23 -37 -26 -23 -65 14 -36 6 -41 -26 -15 l-27 21 -35 -22 c-31 -19 -35 -20 -29 -4 20 50 18 61 -15 84 l-33 22 42 0 c41 0 43 1 55 41 l12 42 14 -42 c13 -39 15 -41 55 -41z
m-504 -10 l46 0 -38 -27 c-23 -16 -36 -32 -32 -41 3 -8 8 -26 12 -40 l6 -26 -28 22 c-34 27 -40 27 -78 0 -27 -19 -30 -20 -24 -4 21 53 19 64 -13 88 l-32 23 43 5 c39 5 44 8 53 40 l10 35 14 -38 c14 -35 17 -37 61 -37z
m-293 -52 c8 -29 15 -34 49 -38 l40 -5 -32 -23 -32 -23 15 -40 14 -41 -35 26 -35 27 -35 -27 -35 -26 14 40 c15 40 14 41 -17 66 l-32 25 42 1 c40 0 42 2 49 35 8 44 18 45 30 3z
m579 -96 l39 -3 -29 -23 c-27 -22 -28 -26 -18 -60 13 -42 12 -43 -27 -15 l-28 22 -33 -23 -32 -24 6 26 c4 15 9 32 12 40 3 7 -9 23 -27 36 l-33 22 38 0 c34 0 40 4 54 38 l16 37 12 -35 c10 -31 16 -35 50 -38z
m-251 -112 l41 -1 -33 -27 c-30 -25 -32 -30 -23 -55 17 -44 13 -50 -15 -28 -33 26 -39 26 -77 -1 -27 -19 -30 -20 -24 -4 21 53 19 64 -13 88 l-32 23 43 5 c39 5 44 8 53 40 l10 35 14 -38 c14 -34 18 -37 56 -37
z"/> -->
<path d="
  M495 0 l1390 0 0 1420 -1390 0z
  M 810,756
  l 27,-84 88,0 -71,-52 26,-82 -70,51 -70,-51 26,82 -71,52 88,0
  M 1046,843
  l 27,-84 88,0 -71,-52 26,-82 -70,51 -70,-51 26,82 -71,52 88,0
  M 1086,580
  l 27,-84 88,0 -71,-52 26,-82 -70,51 -70,-51 26,82 -71,52 88,0
  M 1291,942
  l 27,-84 88,0 -71,-52 26,-82 -70,51 -70,-51 26,82 -71,52 88,0
  M 1342,698
  l 27,-84 88,0 -71,-52 26,-82 -70,51 -70,-51 26,82 -71,52 88,0
  M 1507,1110
  l 27,-84 88,0 -71,-52 26,-82 -70,51 -70,-51 26,82 -71,52 88,0
  M 1554,857
  l 27,-84 88,0 -71,-52 26,-82 -70,51 -70,-51 26,82 -71,52 88,0
z"/>

<!-- <circle cx="810" cy="636" r="47" fill="rgba(255,0,0,.5)"/>
<circle cx="810" cy="636" r="120" fill="rgba(0,255,0,.5)"/> -->

<!-- tip1: 810,756 -->
<!-- pit1: 837,672 -->
<!-- <path d="M 810 636 l 0 120" stroke-width="1" stroke="black"/> -->
<!-- <path d="M 810 636 L 810,756" stroke-width="1" stroke="black"/>
<path d="M 810 636 L 837,672" stroke-width="1" stroke="black"/> -->

<!-- tip2: 925,672 -->
<!-- pit2: 854,620 -->
<!-- <path d="M 812 636 l 115 36" stroke-width="1" stroke="black"/> -->
<!-- <path d="M 810 636 L 925,672" stroke-width="1" stroke="black"/> -->
<!-- <path d="M 812 636 l102 -36z" stroke-width="1" stroke="black"/> -->
<!-- <path d="M 810 636 L 854,620" stroke-width="1" stroke="black"/> -->

<!-- tip3: 880,538 -->
<!-- pit3: 810,589 -->
<!-- <path d="M 812 636 l 70 -98" stroke-width="1" stroke="black"/> -->
<!-- <path d="M 810 636 L 880,538" stroke-width="1" stroke="black"/>
<path d="M 810 636 L 810,589" stroke-width="1" stroke="black"/> -->

<!-- tip4: 740,538 -->
<!-- pit4: 766,620 -->
<!-- <path d="M 812 636 l -70 -98" stroke-width="1" stroke="black"/> -->
<!-- <path d="M 810 636 L 740,538" stroke-width="1" stroke="black"/>
<path d="M 810 636 L 766,620" stroke-width="1" stroke="black"/> -->

<!-- tip5: 695,672 -->
<!-- pit5: 783,672 -->
<!-- <path d="M 810 636 l -115 36" stroke-width="1" stroke="black"/> -->
<!-- <path d="M 810 636 L 695,672" stroke-width="1" stroke="black"/>
<path d="M 810 636 L 783,672" stroke-width="1" stroke="black"/> -->


<!-- <line x1="3835" y1="3645" x2="3998" y2="3138" stroke="black" stroke-width="1"/>
<line x1="3998" y1="3138" x2="3568" y2="3449" stroke="black" stroke-width="1"/>
<line x1="3568" y1="3449" x2="4102" y2="3449" stroke="black" stroke-width="1"/>
<line x1="4102" y1="3449" x2="3672" y2="3138" stroke="black" stroke-width="1"/>
<line x1="3672" y1="3138" x2="3835" y2="3645" stroke="black" stroke-width="1"/> -->

<!-- star 1 -->
<!-- <path stroke="black" stroke-width="1" d="
  M 810,756
  l 27,-84 88,0 -71,-52 26,-82 -70,51 -70,-51 26,82 -71,52 88,0
z"/> -->

<!-- <circle cx="1046" cy="723" r="47" fill="rgba(255,0,0,.5)"/>
<circle cx="1046" cy="723" r="120" fill="rgba(0,255,0,.5)"/> -->
<!-- star 2 -->
<!-- <path stroke="black" stroke-width="1" d="
  M 1046,843
  l 27,-84 88,0 -71,-52 26,-82 -70,51 -70,-51 26,82 -71,52 88,0
z"/> -->

<!-- <circle cx="1086" cy="460" r="47" fill="rgba(255,0,0,.5)"/>
<circle cx="1086" cy="460" r="120" fill="rgba(0,255,0,.5)"/> -->
<!-- star 3 -->
<!-- <path stroke="black" stroke-width="1" d="
  M 1086,580
  l 27,-84 88,0 -71,-52 26,-82 -70,51 -70,-51 26,82 -71,52 88,0
z"/> -->

<!-- star 4 -->
<!-- <circle cx="1291" cy="822" r="47" fill="rgba(255,0,0,.5)"/>
<circle cx="1291" cy="822" r="120" fill="rgba(0,255,0,.5)"/>
<path stroke="black" stroke-width="1" d="
  M 1291,942
  l 27,-84 88,0 -71,-52 26,-82 -70,51 -70,-51 26,82 -71,52 88,0
z"/> -->

<!-- <circle cx="1342" cy="578" r="47" fill="rgba(255,0,0,.5)"/>
<circle cx="1342" cy="578" r="120" fill="rgba(0,255,0,.5)"/> -->
<!-- star 5 -->
<!-- <path stroke="black" stroke-width="1" d="
  M 1342,698
  l 27,-84 88,0 -71,-52 26,-82 -70,51 -70,-51 26,82 -71,52 88,0
z"/> -->

<!-- <circle cx="1507" cy="990" r="47" fill="rgba(255,0,0,.5)"/>
<circle cx="1507" cy="990" r="120" fill="rgba(0,255,0,.5)"/> -->
<!-- star 6 -->
<!-- <path stroke="black" stroke-width="1" d="
  M 1507,1110
  l 27,-84 88,0 -71,-52 26,-82 -70,51 -70,-51 26,82 -71,52 88,0
z"/> -->

<!-- <circle cx="1554" cy="737" r="47" fill="rgba(255,0,0,.5)"/>
<circle cx="1554" cy="737" r="120" fill="rgba(0,255,0,.5)"/> -->
<!-- star 7 -->
<!-- <path stroke="black" stroke-width="1" d="
  M 1554,857
  l 27,-84 88,0 -71,-52 26,-82 -70,51 -70,-51 26,82 -71,52 88,0
z"/> -->

<!-- the C in CITY -->
<path d="M2147 826 c-72 -26 -107 -80 -107 -163 1 -100 66 -163 172 -163 50 0
62 4 90 29 31 28 32 31 16 47 -17 17 -19 17 -41 -4 -76 -72 -198 3 -184 112 4
30 15 50 41 73 45 41 91 44 133 9 22 -18 33 -22 46 -15 26 15 20 35 -16 58
-45 27 -104 34 -150 17z"/>
<!-- the I in CITY -->
<path d="M2380 665 l0 -165 25 0 25 0 0 165 0 165 -25 0 -25 0 0 -165z"/>
<!-- the T in CITY -->
<path d="M2460 810 c0 -17 7 -20 50 -20 l50 0 0 -145 0 -145 25 0 25 0 0 145
0 145 50 0 c43 0 50 3 50 20 0 19 -7 20 -125 20 -118 0 -125 -1 -125 -20z"/>
<!-- the Y in CITY -->
<path d="M2720 826 c0 -2 29 -47 65 -99 64 -94 65 -97 65 -161 0 -64 1 -66 25
-66 24 0 25 2 25 70 0 70 1 72 60 160 33 49 60 92 60 95 0 3 -13 5 -29 5 -24
0 -35 -10 -71 -65 -23 -36 -46 -65 -50 -65 -4 0 -27 29 -50 65 -36 55 -47 65
-71 65 -16 0 -29 -2 -29 -4z"/>
<!-- the O in OF -->
<path d="M3254 830 c-36 -11 -82 -54 -95 -88 -5 -13 -9 -49 -9 -80 0 -103 59
-162 161 -162 105 0 163 65 157 177 -4 66 -21 100 -69 135 -29 22 -103 31
-145 18z m106 -55 c41 -21 63 -68 58 -120 -7 -58 -33 -93 -79 -107 -81 -24
-146 40 -137 134 9 89 82 132 158 93z"/>
<!-- the F in OF -->
<path d="M3510 665 l0 -165 25 0 c24 0 25 2 25 75 l0 75 85 0 c78 0 85 2 85
20 0 18 -7 20 -85 20 l-85 0 0 50 0 50 85 0 c78 0 85 2 85 20 0 19 -7 20 -110
20 l-110 0 0 -165z"/>
<!-- the D in DURHAM -->
<path d="M2040 214 l0 -216 133 4 c151 3 188 16 241 82 28 34 31 45 34 119 2
71 -1 88 -20 122 -26 45 -73 80 -127 95 -20 5 -87 10 -148 10 l-113 0 0 -216z
m205 106 c54 -12 85 -50 85 -103 0 -24 -7 -53 -16 -66 -21 -29 -72 -51 -119
-51 l-35 0 0 115 c0 130 -3 126 85 105z"/>
<!-- the U in DURHAM -->
<path d="M2490 274 c0 -177 9 -209 69 -250 32 -21 46 -24 131 -24 108 0 145
15 180 72 18 29 20 51 20 196 l0 162 -60 0 -60 0 0 -145 c0 -132 -2 -147 -20
-165 -29 -29 -90 -27 -118 3 -20 22 -22 33 -22 165 l0 142 -60 0 -60 0 0 -156z"/>
<!-- the R in DURHAM -->
<path d="M2940 215 l0 -215 60 0 60 0 0 70 c0 68 1 70 25 70 21 0 31 -12 60
-70 l35 -70 65 0 c36 0 65 3 65 8 0 4 -18 39 -40 79 -37 68 -38 72 -19 78 55
18 78 138 39 203 -31 51 -70 62 -220 62 l-130 0 0 -215z m215 105 c63 -24 28
-80 -51 -80 l-44 0 0 45 c0 45 0 45 34 45 19 0 46 -4 61 -10z"/>
<!-- the H in DURHAM -->
<path d="M3360 215 l0 -215 60 0 60 0 0 85 0 85 80 0 80 0 0 -85 0 -85 60 0
60 0 0 215 0 215 -60 0 -60 0 0 -80 0 -80 -80 0 -80 0 0 80 0 80 -60 0 -60 0
0 -215z"/>
<!-- the A in DURHAM -->
<path d="M3935 413 c-8 -22 -87 -232 -126 -335 l-28 -78 68 0 c68 0 69 1 80
30 10 30 11 30 86 30 75 0 76 0 86 -30 11 -29 12 -30 80 -30 l69 0 -25 68
c-14 37 -51 133 -82 215 l-56 147 -72 0 c-60 0 -74 -3 -80 -17z m119 -230 c7
-22 5 -23 -39 -23 -34 0 -46 4 -42 13 2 6 13 38 23 70 l18 59 17 -49 c9 -26
19 -58 23 -70z"/>
<!-- the M in DURHAM -->
<path d="M4270 215 l0 -215 60 0 60 0 1 118 c0 87 3 111 10 92 5 -14 26 -67
46 -118 35 -91 36 -93 66 -90 29 3 33 9 78 123 l48 120 0 -122 1 -123 60 0 60
0 0 215 0 215 -83 0 -83 0 -39 -105 c-22 -57 -42 -101 -46 -97 -3 4 -23 51
-43 105 l-38 97 -79 0 -79 0 0 -215z"/>
</g>
</svg>
