<svg version="1.0" xmlns="http://www.w3.org/2000/svg" width="476pt" height="143pt" viewBox="0 0 476 143" preserveAspectRatio="xMidYMid meet"><g transform="translate(0,143) scale(.1,-.1)" fill="#00467F" stroke="none" fill-rule="evenodd"><rect width="495" height="1420" fill="#FFD24F"/><rect fill="#EE3943" width="247" height="1420"/><path d="M495 0l1385 0 0 1420 -1390 0zM810 756l27 -84 88 0 -71 -52 26 -82 -70 51 -70 -51 26 82 -71 52 88 0M1046 843l27 -84 88 0 -71 -52 26 -82 -70 51 -70 -51 26 82 -71 52 88 0M1086 580l27 -84 88 0 -71 -52 26 -82 -70 51 -70 -51 26 82 -71 52 88 0M1291 942l27 -84 88 0 -71 -52 26 -82 -70 51 -70 -51 26 82 -71 52 88 0M1342 698l27 -84 88 0 -71 -52 26 -82 -70 51 -70 -51 26 82 -71 52 88 0M1507 1110l27 -84 88 0 -71 -52 26 -82 -70 51 -70 -51 26 82 -71 52 88 0M1554 857l27 -84 88 0 -71 -52 26 -82 -70 51 -70 -51 26 82 -71 52 88 0z"/><path d="M2335 765a160 170 0 1 1 0 -200l-37 18a120 130 0 1 0 0 164z"/><path d="M2380 510l40 0 0 320 -40 0z"/><path d="M2460 830l0 -40 100 0 0 -280 45 0 0 280 100 0 0 40z"/><path d="M2724 826l126 -185l0 -130l40 0l0 130l126 185l-45 0l-101 -140l-101 140z"/><path d="M3150 665a160 170 0 1 0 320 0a160 170 0 1 0 -320 0zm40 0a120 130 0 1 0 240 0a120 130 0 1 0 -240 0z"/><path d="M3520 830l0 -320 40 0 0 65l0 75 170 0 0 40 -170 0 0 100 170 0 0 40z"/><path d="M2042 430l183 0a230 215 0 0 0 0 -430l-183 0zM2150 330l75 0a120 115 0 0 0 0 -230l-75 0z"/><path d="M2490 430l0 -265a200 165 0 0 1 400 0l0 265 -112 0 0 -258a88 80 0 0 0 -176 0l0 258z"/><path d="M2950 430l196 0a167 145 0 0 0 82 -272l87 -158 -130 0 -78 140 -47 0 0 -140 -111 0zM3145 330a55 45 0 0 0 0 -90l-84 0 0 90z"/><path d="M3365 0l110 0 0 170 175 0 0 -170 110 0 0 430 -110 0 0 -160 -175 0 0 160 -110 0z"/><path d="M3945 430l-162 -430 128 0 20 60 166 0 20 -60 128 0 -162 430zm72 -120l50 -150 -100 0z"/><path d="M4275 0l105 0 0 280 109 -279 48 0 109 279 0 -280 105 0 0 430 -150 0 -85 -220 -85 220 -150 0z"/></g></svg>
