<svg xmlns="http://www.w3.org/2000/svg" width="500pt" height="620pt" viewBox="0 0 500 620" preserveAspectRatio="xMidYMid meet"><g transform="translate(0,620) scale(.1,-.1)" fill="#00467F"><rect fill="#FFD24F" width="1350" height="6200"/><rect fill="#ED3943" width="675" height="6200"/><path d="M1350 0l3650 0 0 6200 -3650 0zM3835 3645l63 -196 204 0 -165 -120 61 -191 -163 118 -163 -118 62 191 -166 120 204 0zM4015 2965l63 -196 204 0 -165 -120 61 -191 -163 118 -163 -118 62 191 -166 120 204 0zM3341 3165l63 -196 204 0 -165 -120 61 -191 -163 118 -163 -118 62 191 -166 120 204 0zM3460 2465l63 -196 204 0 -165 -120 61 -191 -163 118 -163 -118 62 191 -166 120 204 0zM2668 2780l63 -196 204 0 -165 -120 61 -191 -163 118 -163 -118 62 191 -166 120 204 0zM2812 2144l63 -196 204 0 -165 -120 61 -191 -163 118 -163 -118 62 191 -166 120 204 0zM1947 2552l63 -196 204 0 -165 -120 61 -191 -163 118 -163 -118 62 191 -166 120 204 0z"/></g></svg>
