<?xml version="1.0" standalone="no"?>
<!-- 2,496 bytes initial -->
<!DOCTYPE svg PUBLIC "-//W3C//DTD SVG 20010904//EN"
 "http://www.w3.org/TR/2001/REC-SVG-20010904/DTD/svg10.dtd">
<!-- width 500, height 620 -->
<svg version="1.0" xmlns="http://www.w3.org/2000/svg"
 width="500.000000pt" height="620.000000pt" viewBox="0 0 500.000000 620.000000"
 preserveAspectRatio="xMidYMid meet">

<!-- move picture down by 620, scale everything down to 1/10th, and rotate y axis -->
<g transform="translate(0.000000,620.000000) scale(0.100000,-0.100000)"
fill="#00548F" stroke="none">
<!-- fill="rgba(0,0,255,.5)" stroke="none"> -->

<!-- yellow stripe -->
<!-- <path fill="#FFD046" d="M675 0 L1350 0 1350 6200 675 6200z"/> -->
<!-- <path fill="#FFD046" d="M675 0 L675 6200 1350 6200 1350 0z"/> -->
<!-- <path fill="#FFD046" d="M675 0 l0 6200 680 0 0 -6200z"/> -->
<!-- <path fill="#FFD046" d="M675 0 l675 0 0 6200 -675 0z"/> -->
<rect fill="#FFD046" width="1350" height="6200"/>


<!-- red stripe -->
<!-- <path d="
  M0 3100   # move to 0, 3100 (half of height)
  l0 -3100  # draw down 3100 (bottom left corner)
  340 0     # draw right 340 (halfway up)
  340 0     # draw right 340 (bottom right corner)
  0 3100    # draw up 3100 (half way up)
  0 3100    # draw up 3100 (top right corner)
  -340 0    # draw left 340 (half way)
  -340 0    # draw left 340 (top left corner)
  0 -3100z"/> # draw down 3100 (halfway down) -->
<!-- <path fill="#EF3E42" d="
  M0 0    # move to 0,0
  l680 0  # draw right 680
  0 6200  # draw up 6200
  -680 0z"/>  # draw left 680 -->
<!-- <path fill="#EF3E42" d="M0 0 L675 0 675 6200 0 6200z"/> -->
<!-- <path fill="#EF3E42" d="M0 0 L0 6200 675 6200 675 0z"/> -->
<!-- <path fill="#EF3E42" d="M0 0 l0 6200 675 0 0 -6200z"/> -->
<!-- <path fill="#EF3E42" d="M0 0 l675 0 0 6200 -675 0z"/> -->
<rect fill="#EF3E42" width="675" height="6200"/>

<!-- <path d="
  M1350 3100 # move to 1350,3100 (halfway up the rectangle)
  l0 -3100  # move down 3100
  1825 0    # move right 1825
  1825 0    # move right 1825
  0 3100    # move up 3100
  0 3100    # move up 3100    (height 6200)
  -1825 0   # move left 1825  (width 3650)
  -1825 0   # move left 1825
  0 -3100z  # move down 3100 (1350,3100)
  m2518 444 # move right 2518 move up 444 (3868,3544)
  l28 -89 103 -3 104 -3 -82 -60 c-71 -52 -81 -63 -75 -82 31
-93 52 -167 48 -167 -2 0 -35 22 -72 48 -37 27 -73 52 -80 56 -8 5 -39 -12
-80 -42 -93 -68 -96 -69 -86 -41 4 13 17 57 30 97 l22 72 -80 58 -80 57 100 3
101 3 31 95 c18 52 34 93 36 91 3 -2 17 -44 32 -93z m-360 -572 l104 -3 -79
-56 c-43 -31 -80 -58 -82 -60 -4 -3 35 -135 57 -192 3 -8 -28 10 -69 40 -103
76 -96 74 -132 47 -18 -13 -55 -41 -84 -61 l-52 -38 33 99 34 100 -82 58 -81
59 101 3 100 3 23 72 c44 135 40 134 75 27 l31 -95 103 -3z m673 -202 l104 -5
-82 -59 c-46 -33 -83 -62 -83 -66 0 -3 13 -46 30 -95 16 -49 29 -90 27 -91 -1
-2 -38 24 -82 56 l-80 58 -50 -36 c-27 -19 -65 -46 -82 -60 -18 -13 -33 -20
-33 -15 0 5 13 49 30 98 16 49 29 89 27 90 -1 1 -38 29 -82 61 l-80 59 103 5
104 5 30 95 31 95 32 -95 32 -95 104 -5z m-1481 -85 l31 -94 105 -3 105 -3
-81 -58 c-44 -32 -80 -63 -80 -70 0 -7 11 -48 25 -92 14 -44 25 -83 25 -88 0
-4 -36 19 -81 52 l-81 60 -72 -53 c-39 -29 -76 -55 -82 -59 -7 -4 1 35 17 86
16 50 29 95 29 98 0 3 -37 32 -82 65 l-82 59 105 3 106 3 29 94 c16 52 30 95
31 95 1 0 16 -43 33 -95z m-720 -230 l32 -95 105 0 106 0 -84 -61 c-94 -68
-91 -59 -53 -171 13 -39 22 -73 20 -76 -3 -2 -40 21 -82 52 l-77 56 -31 -23
c-81 -60 -136 -98 -136 -95 0 2 14 44 30 93 17 49 30 92 30 96 0 4 -37 33 -81
66 l-82 58 104 5 103 5 30 93 c17 50 31 92 32 92 1 0 17 -43 34 -95z m1645
-185 l98 -5 -76 -55 c-43 -30 -77 -59 -77 -65 0 -6 13 -50 29 -98 17 -48 28
-87 25 -87 -3 0 -39 25 -79 55 -41 30 -78 55 -83 55 -4 0 -41 -24 -82 -54 -41
-30 -76 -53 -78 -51 -2 2 8 40 22 85 14 44 26 87 26 94 0 7 -34 37 -76 67
l-75 54 98 5 98 5 27 75 c14 41 29 84 33 95 5 15 15 -5 39 -75 l33 -95 98 -5z
m-646 -320 l102 -5 -81 -58 c-44 -32 -80 -61 -80 -66 0 -4 13 -47 30 -96 16
-49 29 -89 27 -91 -1 -1 -39 25 -84 58 l-82 60 -76 -57 c-42 -31 -79 -54 -81
-52 -3 2 8 45 24 95 l29 90 -81 59 -81 58 102 3 102 3 26 82 c14 45 28 89 31
97 4 9 20 -25 38 -80 l33 -95 102 -5z"/> -->

<!-- <path d="M1350 3100 l0 -3100 1825 0 1825 0 0 3100 0 3100 -1825 0 -1825 0 0
-3100z m2518 444 l28 -89 103 -3 104 -3 -82 -60 c-71 -52 -81 -63 -75 -82 31
-93 52 -167 48 -167 -2 0 -35 22 -72 48 -37 27 -73 52 -80 56 -8 5 -39 -12
-80 -42 -93 -68 -96 -69 -86 -41 4 13 17 57 30 97 l22 72 -80 58 -80 57 100 3
101 3 31 95 c18 52 34 93 36 91 3 -2 17 -44 32 -93z m-360 -572 l104 -3 -79
-56 c-43 -31 -80 -58 -82 -60 -4 -3 35 -135 57 -192 3 -8 -28 10 -69 40 -103
76 -96 74 -132 47 -18 -13 -55 -41 -84 -61 l-52 -38 33 99 34 100 -82 58 -81
59 101 3 100 3 23 72 c44 135 40 134 75 27 l31 -95 103 -3z m673 -202 l104 -5
-82 -59 c-46 -33 -83 -62 -83 -66 0 -3 13 -46 30 -95 16 -49 29 -90 27 -91 -1
-2 -38 24 -82 56 l-80 58 -50 -36 c-27 -19 -65 -46 -82 -60 -18 -13 -33 -20
-33 -15 0 5 13 49 30 98 16 49 29 89 27 90 -1 1 -38 29 -82 61 l-80 59 103 5
104 5 30 95 31 95 32 -95 32 -95 104 -5z m-1481 -85 l31 -94 105 -3 105 -3
-81 -58 c-44 -32 -80 -63 -80 -70 0 -7 11 -48 25 -92 14 -44 25 -83 25 -88 0
-4 -36 19 -81 52 l-81 60 -72 -53 c-39 -29 -76 -55 -82 -59 -7 -4 1 35 17 86
16 50 29 95 29 98 0 3 -37 32 -82 65 l-82 59 105 3 106 3 29 94 c16 52 30 95
31 95 1 0 16 -43 33 -95z m-720 -230 l32 -95 105 0 106 0 -84 -61 c-94 -68
-91 -59 -53 -171 13 -39 22 -73 20 -76 -3 -2 -40 21 -82 52 l-77 56 -31 -23
c-81 -60 -136 -98 -136 -95 0 2 14 44 30 93 17 49 30 92 30 96 0 4 -37 33 -81
66 l-82 58 104 5 103 5 30 93 c17 50 31 92 32 92 1 0 17 -43 34 -95z m1645
-185 l98 -5 -76 -55 c-43 -30 -77 -59 -77 -65 0 -6 13 -50 29 -98 17 -48 28
-87 25 -87 -3 0 -39 25 -79 55 -41 30 -78 55 -83 55 -4 0 -41 -24 -82 -54 -41
-30 -76 -53 -78 -51 -2 2 8 40 22 85 14 44 26 87 26 94 0 7 -34 37 -76 67
l-75 54 98 5 98 5 27 75 c14 41 29 84 33 95 5 15 15 -5 39 -75 l33 -95 98 -5z
m-646 -320 l102 -5 -81 -58 c-44 -32 -80 -61 -80 -66 0 -4 13 -47 30 -96 16
-49 29 -89 27 -91 -1 -1 -39 25 -84 58 l-82 60 -76 -57 c-42 -31 -79 -54 -81
-52 -3 2 8 45 24 95 l29 90 -81 59 -81 58 102 3 102 3 26 82 c14 45 28 89 31
97 4 9 20 -25 38 -80 l33 -95 102 -5z"/> -->

<!-- <path d="M1350 0 l3650 0 0 6200 -3650 0z M3868 3544 l28 -89 103 -3 104 -3
-82 -60 c-71 -52 -81 -63 -75 -82 31 -93 52 -167 48 -167 -2 0 -35 22 -72 48
-37 27 -73 52 -80 56 -8 5 -39 -12 -80 -42 -93 -68 -96 -69 -86 -41 4 13 17
57 30 97 l22 72 -80 58 -80 57 100 3 101 3 31 95 c18 52 34 93 36 91 3 -2 17
-44 32 -93z m-360 -572 l104 -3 -79 -56 c-43 -31 -80 -58 -82 -60 -4 -3 35
-135 57 -192 3 -8 -28 10 -69 40 -103 76 -96 74 -132 47 -18 -13 -55 -41 -84
-61 l-52 -38 33 99 34 100 -82 58 -81 59 101 3 100 3 23 72 c44 135 40 134 75
27 l31 -95 103 -3z m673 -202 l104 -5 -82 -59 c-46 -33 -83 -62 -83 -66 0 -3
13 -46 30 -95 16 -49 29 -90 27 -91 -1 -2 -38 24 -82 56 l-80 58 -50 -36 c-27
-19 -65 -46 -82 -60 -18 -13 -33 -20 -33 -15 0 5 13 49 30 98 16 49 29 89 27
90 -1 1 -38 29 -82 61 l-80 59 103 5 104 5 30 95 31 95 32 -95 32 -95 104 -5z
m-1481 -85 l31 -94 105 -3 105 -3 -81 -58 c-44 -32 -80 -63 -80 -70 0 -7 11
-48 25 -92 14 -44 25 -83 25 -88 0 -4 -36 19 -81 52 l-81 60 -72 -53 c-39 -29
-76 -55 -82 -59 -7 -4 1 35 17 86 16 50 29 95 29 98 0 3 -37 32 -82 65 l-82
59 105 3 106 3 29 94 c16 52 30 95 31 95 1 0 16 -43 33 -95z m-720 -230 l32
-95 105 0 106 0 -84 -61 c-94 -68 -91 -59 -53 -171 13 -39 22 -73 20 -76 -3
-2 -40 21 -82 52 l-77 56 -31 -23 c-81 -60 -136 -98 -136 -95 0 2 14 44 30 93
17 49 30 92 30 96 0 4 -37 33 -81 66 l-82 58 104 5 103 5 30 93 c17 50 31 92
32 92 1 0 17 -43 34 -95z m1645 -185 l98 -5 -76 -55 c-43 -30 -77 -59 -77 -65
0 -6 13 -50 29 -98 17 -48 28 -87 25 -87 -3 0 -39 25 -79 55 -41 30 -78 55
-83 55 -4 0 -41 -24 -82 -54 -41 -30 -76 -53 -78 -51 -2 2 8 40 22 85 14 44
26 87 26 94 0 7 -34 37 -76 67 l-75 54 98 5 98 5 27 75 c14 41 29 84 33 95 5
15 15 -5 39 -75 l33 -95 98 -5z m-646 -320 l102 -5 -81 -58 c-44 -32 -80 -61
-80 -66 0 -4 13 -47 30 -96 16 -49 29 -89 27 -91 -1 -1 -39 25 -84 58 l-82 60
-76 -57 c-42 -31 -79 -54 -81 -52 -3 2 8 45 24 95 l29 90 -81 59 -81 58 102 3
102 3 26 82 c14 45 28 89 31 97 4 9 20 -25 38 -80 l33 -95 102 -5z"/> -->

<!-- <path d="M1350 0 l3650 0 0 6200 -3650 0z
  M3868 3544
  l28 -89   # move right 128, down 89 ↘ (3896,3455) (top right crevice)
  103 -3    # move right 103, down 3 ↘ (3999,3452)
  104 -3    # move right 104, down 3 ↘ (4103,3449) (length 207) (top right tip)
  -164 -120   # move left 82, down 60 ↙ (3939,3329) (length 203.3) (lower right crevice)
  60 -192   # move right 60, down 192 ↘ (3999,3137) (low right tip) (length 201.2)
  -77 51
  c-37 27 -73 52 -80 56
  -8 5 -39 -12 -80 -42
  -93 -68 -96 -69 -86 -41
  4 13 17 57 30 97
  l22 72
  -80 58
  -80 57
  100 3
  101 3
  31 95
  c18 52 34 93 36 91 3 -2 17
-44 32 -93z m-360 -572 l104 -3 -79 -56 c-43 -31 -80 -58 -82 -60 -4 -3 35
-135 57 -192 3 -8 -28 10 -69 40 -103 76 -96 74 -132 47 -18 -13 -55 -41 -84
-61 l-52 -38 33 99 34 100 -82 58 -81 59 101 3 100 3 23 72 c44 135 40 134 75
27 l31 -95 103 -3z m673 -202 l104 -5 -82 -59 c-46 -33 -83 -62 -83 -66 0 -3
13 -46 30 -95 16 -49 29 -90 27 -91 -1 -2 -38 24 -82 56 l-80 58 -50 -36 c-27
-19 -65 -46 -82 -60 -18 -13 -33 -20 -33 -15 0 5 13 49 30 98 16 49 29 89 27
90 -1 1 -38 29 -82 61 l-80 59 103 5 104 5 30 95 31 95 32 -95 32 -95 104 -5z
m-1481 -85 l31 -94 105 -3 105 -3 -81 -58 c-44 -32 -80 -63 -80 -70 0 -7 11
-48 25 -92 14 -44 25 -83 25 -88 0 -4 -36 19 -81 52 l-81 60 -72 -53 c-39 -29
-76 -55 -82 -59 -7 -4 1 35 17 86 16 50 29 95 29 98 0 3 -37 32 -82 65 l-82
59 105 3 106 3 29 94 c16 52 30 95 31 95 1 0 16 -43 33 -95z m-720 -230 l32
-95 105 0 106 0 -84 -61 c-94 -68 -91 -59 -53 -171 13 -39 22 -73 20 -76 -3
-2 -40 21 -82 52 l-77 56 -31 -23 c-81 -60 -136 -98 -136 -95 0 2 14 44 30 93
17 49 30 92 30 96 0 4 -37 33 -81 66 l-82 58 104 5 103 5 30 93 c17 50 31 92
32 92 1 0 17 -43 34 -95z m1645 -185 l98 -5 -76 -55 c-43 -30 -77 -59 -77 -65
0 -6 13 -50 29 -98 17 -48 28 -87 25 -87 -3 0 -39 25 -79 55 -41 30 -78 55
-83 55 -4 0 -41 -24 -82 -54 -41 -30 -76 -53 -78 -51 -2 2 8 40 22 85 14 44
26 87 26 94 0 7 -34 37 -76 67 l-75 54 98 5 98 5 27 75 c14 41 29 84 33 95 5
15 15 -5 39 -75 l33 -95 98 -5z m-646 -320 l102 -5 -81 -58 c-44 -32 -80 -61
-80 -66 0 -4 13 -47 30 -96 16 -49 29 -89 27 -91 -1 -1 -39 25 -84 58 l-82 60
-76 -57 c-42 -31 -79 -54 -81 -52 -3 2 8 45 24 95 l29 90 -81 59 -81 58 102 3
102 3 26 82 c14 45 28 89 31 97 4 9 20 -25 38 -80 l33 -95 102 -5z"/>
</g> -->
<path d="M1350 0 l3650 0 0 6200 -3650 0z
  M3835 3645
  l63 -196 204 0 -165 -120 61 -191 -163 118 -163 -118 62 191 -166 120 204 0z
  M4015 2965
  l63 -196 204 0 -165 -120 61 -191 -163 118 -163 -118 62 191 -166 120 204 0z
  M3341 3165
  l63 -196 204 0 -165 -120 61 -191 -163 118 -163 -118 62 191 -166 120 204 0z
  M3460 2465
  l63 -196 204 0 -165 -120 61 -191 -163 118 -163 -118 62 191 -166 120 204 0z
  M2668 2780
  l63 -196 204 0 -165 -120 61 -191 -163 118 -163 -118 62 191 -166 120 204 0z
  M2812 2144
  l63 -196 204 0 -165 -120 61 -191 -163 118 -163 -118 62 191 -166 120 204 0z
  M1947 2552
  l63 -196 204 0 -165 -120 61 -191 -163 118 -163 -118 62 191 -166 120 204 0z"/>

<!-- <circle cx="3835" cy="3365" r="110" fill="rgba(255,0,0,.5)"/>
<circle cx="3835" cy="3365" r="280" fill="rgba(0,255,0,.5)"/> -->

<!-- tip1: 3835,3645 -->
<!-- pit1: 3898,3449 -->
<!-- <path d="M3835 3365 l0 280z" stroke-width="1" stroke="black"/> -->
<path d="M3835 3365 L3835 3645z" stroke-width="1" stroke="black"/>
<!-- <path d="M3835 3365 l0 280z" stroke-width="1" stroke="black"/> -->
<path d="M3835 3365 L3898 3449z" stroke-width="1" stroke="black"/>
<!-- tip2: 4102,3449 -->
<!-- pit2: 3937,3329 -->
<!-- <path d="M3835 3365 l267 84z" stroke-width="1" stroke="black"/> -->
<path d="M3835 3365 L4102 3449z" stroke-width="1" stroke="black"/>
<!-- <path d="M3835 3365 l102 -36z" stroke-width="1" stroke="black"/> -->
<path d="M3835 3365 L3937 3329z" stroke-width="1" stroke="black"/>
<!-- tip3: 3998,3138 -->
<!-- pit3: 3835,3256 -->
<!-- <path d="M3835 3365 l163 -227z" stroke-width="1" stroke="black"/> -->
<path d="M3835 3365 L3998 3138z" stroke-width="1" stroke="black"/>
<path d="M3835 3365 L3835 3256z" stroke-width="1" stroke="black"/>
<!-- tip4: 3672,3138 -->
<!-- pit4: 3734,3329 -->
<!-- <path d="M3835 3365 l-163 -227z" stroke-width="1" stroke="black"/> -->
<path d="M3835 3365 L3672,3138z" stroke-width="1" stroke="black"/>
<path d="M3835 3365 L3734,3329z" stroke-width="1" stroke="black"/>
<!-- tip5: 3568,3449 -->
<!-- pit5: 3772,3449 -->
<!-- <path d="M3835 3365 l-267 84z" stroke-width="1" stroke="black"/> -->
<path d="M3835 3365 L3568,3449z" stroke-width="1" stroke="black"/>
<path d="M3835 3365 L3772 3449z" stroke-width="1" stroke="black"/>

<line x1="3835" y1="3645" x2="3998" y2="3138" stroke="black" stroke-width="1"/>
<line x1="3998" y1="3138" x2="3568" y2="3449" stroke="black" stroke-width="1"/>
<line x1="3568" y1="3449" x2="4102" y2="3449" stroke="black" stroke-width="1"/>
<line x1="4102" y1="3449" x2="3672" y2="3138" stroke="black" stroke-width="1"/>
<line x1="3672" y1="3138" x2="3835" y2="3645" stroke="black" stroke-width="1"/>

<!-- star 1 -->
<!-- <path stroke="red" stroke-width="1" d="
  M3835 3645
  l63 -196
    204 0
    -165 -120
    61 -191
    -163 118
    -163 -118
    62 191
    -166 120
    204 0z
"/> -->

<!-- <circle cx="4015" cy="2685" r="110" fill="rgba(255,0,0,.5)"/>
<circle cx="4015" cy="2685" r="280" fill="rgba(0,255,0,.5)"/> -->
<!-- star 2 -->
<!-- <path stroke="red" stroke-width="1" d="
  M4015 2965
  l63 -196
    204 0
    -165 -120
    61 -191
    -163 118
    -163 -118
    62 191
    -166 120
    204 0z
"/> -->

<!-- <circle cx="3341" cy="2885" r="110" fill="rgba(255,0,0,.5)"/>
<circle cx="3341" cy="2885" r="280" fill="rgba(0,255,0,.5)"/> -->
<!-- star 3 -->
<!-- <path stroke="red" stroke-width="1" d="
  M3341 3165
  l63 -196
    204 0
    -165 -120
    61 -191
    -163 118
    -163 -118
    62 191
    -166 120
    204 0z
  "/> -->

<!-- <circle cx="3460" cy="2185" r="110" fill="rgba(255,0,0,.5)"/>
<circle cx="3460" cy="2185" r="280" fill="rgba(0,255,0,.5)"/> -->
<!-- star 4 -->
<!-- <path stroke="red" stroke-width="1" d="
  M3460 2465
  l63 -196
    204 0
    -165 -120
    61 -191
    -163 118
    -163 -118
    62 191
    -166 120
    204 0z
"/> -->

<!-- <circle cx="2668" cy="2500" r="110" fill="rgba(255,0,0,.5)"/>
<circle cx="2668" cy="2500" r="280" fill="rgba(0,255,0,.5)"/> -->
<!-- star 5 -->
<!-- <path stroke="red" stroke-width="1" d="
  M2668 2780
  l63 -196
    204 0
    -165 -120
    61 -191
    -163 118
    -163 -118
    62 191
    -166 120
    204 0z
"/> -->
<!-- <circle cx="2812" cy="1864" r="110" fill="rgba(255,0,0,.5)"/>
<circle cx="2812" cy="1864" r="280" fill="rgba(0,255,0,.5)"/> -->
<!-- star 6 -->
<!-- <path stroke="red" stroke-width="1" d="
  M2812 2144
  l63 -196
    204 0
    -165 -120
    61 -191
    -163 118
    -163 -118
    62 191
    -166 120
    204 0z
"/> -->
<!-- <circle cx="1947" cy="2272" r="110" fill="rgba(255,0,0,.5)"/>
<circle cx="1947" cy="2272" r="280" fill="rgba(0,255,0,.5)"/> -->
<!-- star 7 -->
<!-- <path stroke="red" stroke-width="1" d="
  M1947 2552
  l63 -196
    204 0
    -165 -120
    61 -191
    -163 118
    -163 -118
    62 191
    -166 120
    204 0z
"/> -->
</g>
</svg>
