<?xml version="1.0" standalone="no"?>
<!DOCTYPE svg PUBLIC "-//W3C//DTD SVG 20010904//EN"
 "http://www.w3.org/TR/2001/REC-SVG-20010904/DTD/svg10.dtd">
<svg version="1.0" xmlns="http://www.w3.org/2000/svg"
 width="852.000000pt" height="266.000000pt" viewBox="0 0 852.000000 266.000000"
 preserveAspectRatio="xMidYMid meet">

<g transform="translate(0,266) scale(.1,-.1)"
fill="#00919F" stroke="none">
<path d="M7540 2350 c-63 -10 -203 -32 -310 -50 -189 -30 -207 -32 -570 -36 -206 -2 -514 -11 -685 -19 -170 -8 -396 -19 -501 -25 -315 -15 -748 -21 -924 -13 l-165 8 3 -79 c3 -62 -1 -92 -18 -140 -34 -92 -77 -174 -130 -246 -59 -80 -212 -230 -234 -230 -8 0 -39 -17 -67 -39 -63 -47 -181 -107 -231 -115 l-37 -7 31 -52 c55 -93 145 -220 212 -298 l66 -76 97 14 c229 31 633 73 830 84 172 10 246 10 395 0 277 -20 298 -26 128 -34 -245 -12 -881 -57 -1215 -87 -172 -15 -192 -15 -210 -1 -11 9 -3 -3 19 -26 21 -23 44 -40 50 -37 6 2 61 8 121 13 61 5 118 12 128 16 l17,0 165,14 315,28 c173 16 378 35 455 42 135 14 536 48 700 60 44 3 164 15 268 26 103 11 191 17 197 14 10 -6 1211 71 1270 82 83 15 288 108 345 158 l30 26 -405 -6 c-484 -6 -980 -22 -1070 -35 -36 -5 -112 -11 -170 -14 -184 -9 -34 10 470 58 85 8 256 22 380 31 124 8 275 20 335 25 61 6 214 13 340 16 l230 6 77 78 c210 214 193 415 -43 504 -43 16 -51 16 -135 1 -49 -9 -99 -19 -110 -22 -30 -7 -49 50 -40 123 5 40 3 54 -6 54 -7 0 -53 -4 -103 -9 -195 -20 -752 -58 -950 -65 l-140 -5 195 18 c280 27 470 48 760 85 l255 32 3 41 c9 116 -140 157 -418 113z m-837 -297 c-13 -2 -33 -2 -45 0 -13 2 -3 4 22 4 25 0 35 -2 23 -4z"/>
<path d="M3890 2188 c0 -4 -6 -13 -14 -21 -28 -27 -54 -80 -48 -95 3 -10 1 -13 -6 -8 -7 4 -29 -30 -61 -97 -62 -129 -124 -278 -118 -283 2 -3 16 23 31 57 32 75 45 73 16 -2 -31 -83 -24 -80 33 15 28 49 83 127 120 174 38 46 80 103 95 126 14 23 47 64 74 91 l47 50 -84 0 c-47 0 -85 -3 -85 -7z"/>
<path d="M4123 2128 c-58 -56 -219 -250 -294 -358 -50 -71 -183 -320 -171 -320 16 0 93 31 123 49 60 36 218 191 279 274 105 141 174 309 156 381 -9 38 -31 32 -93 -26z"/>
<path d="M3515 2155 c-66 -8 -142 -16 -169 -20 -47 -6 -49 -5 -36 12 8 10 1 6 -16 -9 -30 -28 -68 -36 -79 -18 -4 6 -10 8 -14 6 -4 -3 -48 -10 -97 -16 -49 -5 -106 -13 -128 -16 -31 -5 -37 -3 -31 7 14 25 -10 -4 -47 -56 -136 -191 -253 -486 -295 -738 -24 -146 -6 -151 108 -30 80 86 248 325 480 686 44 68 68 85 107 72 35 -10 72 -46 72 -67 0 -21 -39 -98 -50 -98 -8 0 -32 -49 -73 -150 -68 -165 -87 -246 -117 -482 -18 -139 -20 -177 -10 -223 16 -77 40 -72 115 25 70 91 91 76 55 -42 -16 -54 -32 -82 -61 -111 -38 -38 -41 -39 -93 -35 -68 6 -115 39 -147 105 -22 45 -24 58 -21 197 2 131 12 222 38 356 5 29 -3 20 -50 -54 -116 -181 -222 -332 -263 -373 -37 -37 -48 -43 -85 -43 -37 0 -47 6 -89 49 -100 104 -115 179 -75 369 14 67 38 153 52 190 27 68 187 385 208 411 6 8 7 12 1 9 -15 -9 -318 -38 -427 -41 -94 -2 -97 -3 -103 -27 -4 -14 -26 -76 -51 -138 -24 -63 -44 -121 -44 -130 0 -10 -11 -41 -25 -71 l-25 -54 97 7 c54 4 140 13 191 20 51 7 95 9 98 4 10 -16 -16 -35 -58 -42 -23 -4 -47 -11 -53 -16 -5 -4 -48 -15 -95 -24 -87 -16 -186 -36 -206 -41 -6 -2 -30 -63 -54 -137 -2 -73 -66 -199 -95 -280 -30 -80 -52 -155 -51 -165 6 -33 43 -17 294 121 98 54 146 76 153 69 43 -43 -241 -297 -370 -333 -82 -23 -152 0 -213 68 -32 36 -38 49 -38 87 0 25 7 56 14 68 8 12 31 67 50 122 19 55 53 152 75 215 23 63 41 118 41 121 0 4 -11 10 -25 13 -14 4 -32 18 -41 32 -23 34 -5 51 65 61 31 5 57 14 62 23 4 8 37 104 73 212 l65 198 -147 -3 -147 -2 -1 -65 c-2 -77 -70 -296 -134 -428 -22 -46 -40 -89 -40 -96 0 -25 -82 -181 -140 -266 -140 -204 -261 -268 -387 -205 -77 39 -118 102 -137 210 l-7 40 36 -60 c42 -71 96 -125 125 -125 64 0 130 72 222 241 94 173 196 425 273 674 l22 71 -66 -8 c-97 -10 -163 -10 -156 2 3 6 4 10 2 10 -21 0 -308 -462 -395 -635 -106 -212 -172 -397 -172 -480 0 -62 -63 -84 -127 -45 -23 13 -34 29 -38 54 -6 30 6 145 21 197 4 13 -5 14 -73 7 -100 -11 -156 -32 -188 -69 -30 -36 -32 -75 -9 -181 8 -40 13 -89 10 -108 l-5 -35 152 3 c204 5 446 -13 617 -44 l141 -26 547 37 c301 20 628 43 727 50 99 8 356 28 570 45 215 17 463 37 552 44 90 7 166 16 170 19 4 4 -2 16 -13 26 -18 17 -27 17 -154 5 -74 -7 -155 -16 -180 -19 -25 -4 -42 -4 -39 -1 9 9 320 58 335 52 9 -3 4 10 -11 32 -14 20 -25 42 -25 49 0 7 -14 36 -31 65 -45 76 -119 229 -119 247 -2 45 -90 -194 -110 -296 -11 -54 -15 -61 -44 -71 -43 -16 -67 -15 -93 3 -38 27 -38 70 2 239 41 179 38 166 75 266 16 41 50 142 76 224 27 82 58 164 70 182 12 17 25 42 29 55 4 13 32 77 61 142 30 65 54 123 54 128 0 11 -43 10 -195 -6z"/>
<path d="M1090 1961 c-20 -5 -34 -27 -68 -106 -38 -87 -162 -442 -162 -463 0 -4 27 43 58 103 67 127 116 207 216 354 39 59 73 109 74 114 4 9 -84 8 -118 -2z"/>
<path d="M830 1940 c-19 -5 -87 -16 -150 -26 -314 -46 -494 -124 -551 -237 -73 -142 93 -315 396 -413 67 -22 102 -38 106 -51 6 -13 8 -9 8 16 1 18 14 72 30 120 16 47 32 102 36 121 17 86 100 346 118 368 9 11 50 114 44 111 -1 -1 -18 -5 -37 -9z"/>
</g>

<g transform="translate(0,266) scale(.1,-.1)" fill="#000000" stroke="none">
<path d="M1581 2383 c-38 -19 -189 -182 -294 -318 -104 -134 -287 -415 -356
-545 -33 -63 -61 -111 -61 -106 0 18 72 242 107 331 49 123 172 397 188 415
21 26 45 78 45 101 0 27 -62 89 -90 89 -35 0 -53 -15 -103 -87 -45 -65 -161
-322 -174 -383 -3 -16 -11 -34 -19 -41 -17 -14 -72 -185 -128 -399 -26 -98
-62 -210 -67 -206 -2 2 -4 -12 -4 -32 0 -42 -10 -118 -27 -208 -15 -85 -5
-130 35 -154 34 -21 82 -26 106 -11 7 5 20 47 28 97 26 165 154 443 348 759
109 178 144 226 255 365 106 131 185 213 201 208 38 -13 3 -185 -98 -482 -79
-233 -150 -398 -233 -545 -98 -173 -157 -230 -221 -216 -33 8 -85 64 -118 129
-12 25 -25 46 -28 46 -8 0 8 -80 24 -119 25 -61 63 -102 117 -127 124 -58 231
-5 368 181 58 78 158 263 158 291 0 8 15 45 34 82 40 82 87 207 121 325 30
106 45 367 26 458 -20 96 -74 135 -140 102z"/>
<path d="M2920 2322 c-80 -58 -172 -176 -251 -322 -161 -299 -196 -383 -230
-562 -33 -175 -17 -249 80 -349 43 -44 52 -49 91 -49 40 0 48 5 89 49 26 26
104 136 176 244 71 108 130 195 131 194 1 -1 -7 -51 -17 -112 -11 -64 -20
-172 -21 -260 -3 -140 -1 -153 21 -198 32 -66 79 -99 147 -105 52 -4 55 -3 93
34 58 58 103 214 62 214 -5 0 -32 -29 -60 -64 -47 -58 -68 -76 -91 -76 -20 0
-32 112 -21 189 6 42 18 129 26 194 18 135 48 246 100 367 20 47 37 90 39 95
4 19 26 54 51 81 13 14 28 42 31 62 6 31 3 39 -25 64 -18 16 -43 28 -59 28
-29 0 -72 -24 -72 -40 0 -5 -13 -29 -28 -52 -16 -24 -55 -83 -87 -133 -143
-223 -326 -476 -395 -547 -111 -116 -124 -106 -91 69 59 310 213 640 379 810
69 70 111 96 150 91 23 -3 30 -12 46 -58 30 -82 48 -90 109 -48 43 31 37 67
-21 120 -78 70 -144 101 -226 106 -70 4 -72 3 -126 -36z"/>
<path d="M3818 2333 c-9 -10 -23 -34 -33 -53 -10 -19 -26 -44 -36 -55 -16 -18
-137 -281 -154 -336 -4 -12 -17 -36 -29 -54 -12 -17 -46 -106 -75 -196 -29
-90 -63 -189 -75 -219 -23 -56 -36 -104 -81 -291 -32 -135 -32 -163 0 -194 26
-27 55 -31 102 -14 27 9 32 17 43 71 12 62 72 244 95 287 l13 25 7 -33 c4 -19
33 -82 64 -140 73 -135 74 -137 99 -191 22 -48 47 -80 157 -197 83 -89 107
-103 175 -103 77 0 155 48 220 135 l34 45 1843 0 1843 0 0 30 0 30 -1762 2
c-970 0 -1770 1 -1778 0 -8 0 -49 -2 -90 -3 -67 -2 -79 -5 -109 -31 -65 -57
-121 -62 -197 -19 -50 29 -109 93 -97 105 4 3 -1 6 -9 6 -28 0 -199 219 -287
368 l-29 49 52 12 c52 12 159 68 226 119 19 15 38 28 43 28 4 1 12 2 18 3 19
2 178 163 229 231 93 127 150 265 152 375 l1 74 36 4 36 4 -35 2 c-30 2 -39 9
-65 49 -18 28 -45 54 -67 65 -63 31 -96 14 -221 -110 -59 -59 -117 -124 -128
-143 -12 -19 -54 -75 -94 -125 -40 -49 -96 -128 -124 -175 -54 -91 -63 -93
-31 -8 26 68 25 72 -5 23 -43 -69 -27 -19 35 113 33 70 65 126 71 124 6 -1 8
2 5 7 -8 13 4 42 15 35 5 -3 10 1 10 8 3 28 5 34 18 58 23 39 37 50 73 51 28
2 29 3 7 6 -25 4 -26 7 -21 53 7 80 -49 139 -90 93z m398 -179 c18 -72 -51
-240 -155 -381 -63 -84 -193 -212 -268 -265 -33 -22 -117 -57 -141 -58 -2 0
12 28 31 63 19 34 54 98 77 142 88 167 385 525 435 525 8 0 18 -12 21 -26z"/>
<path d="M2112 2308 c-5 -7 -13 -28 -17 -46 -9 -41 -23 -48 -114 -55 -56 -3
-78 -9 -88 -23 -34 -47 1 -94 75 -102 38 -3 52 -9 52 -20 0 -16 -136 -436
-149 -462 -5 -9 -30 -18 -61 -22 -29 -3 -59 -13 -68 -21 -14 -14 -13 -18 2
-42 9 -14 28 -30 41 -35 l23 -9 -28 -88 c-15 -48 -37 -113 -50 -143 -12 -30
-33 -88 -46 -129 -14 -40 -31 -83 -39 -94 -21 -30 -19 -106 3 -140 62 -92 178
-120 285 -66 148 75 348 267 322 310 -10 15 -29 6 -194 -87 -84 -46 -174 -93
-200 -104 -49 -19 -49 -19 -54 2 -3 11 -1 32 5 47 6 14 50 141 98 281 l87 255
51 6 c27 4 55 10 61 14 7 3 50 13 97 21 48 7 91 18 98 23 6 5 30 12 53 16 42
7 69 27 60 43 -3 4 -50 2 -104 -5 -54 -6 -139 -15 -190 -19 l-91 -7 38 104
c20 57 62 170 91 252 l54 147 49 15 c27 8 60 15 72 15 12 0 44 6 70 14 27 8
94 25 149 37 55 11 105 25 110 29 6 4 30 11 55 15 58 9 100 31 100 52 0 18 -6
18 -348 -19 l-202 -22 -16 22 c-31 44 -118 69 -142 40z"/>
<path d="M7945 1095 l-59 -66 47 -47 46 -46 29 27 28 27 64 -66 65 -66 -112
-107 c-62 -60 -113 -112 -113 -118 0 -5 15 -23 33 -41 l33 -32 149 150 150
150 -151 151 -151 151 -58 -67z"/>

<path d="M190 330 l0 -90 44 0 c62 0 96 29 96 81 0 22 -4 49 -10 59 -11 21
-60 40 -101 40 l-29 0 0 -90z m102 43 c42 -37 7 -113 -52 -113 l-30 0 0 65 0
65 32 0 c17 0 40 -7 50 -17z"/>
<path d="M420 351 c0 -58 4 -75 20 -91 24 -24 67 -26 98 -4 19 13 22 24 22 90
0 43 -4 74 -10 74 -6 0 -10 -28 -10 -64 0 -68 -14 -96 -49 -96 -33 0 -51 33
-51 93 0 31 -4 59 -10 62 -6 4 -10 -20 -10 -64z"/>
<path d="M660 330 c0 -53 4 -90 10 -90 6 0 10 14 10 30 0 25 4 30 24 30 17 0
31 -10 43 -30 9 -16 23 -30 31 -30 10 0 8 9 -8 35 -12 19 -17 35 -11 35 15 0
31 43 24 68 -6 24 -43 42 -88 42 l-35 0 0 -90z m97 44 c10 -26 -11 -49 -46
-52 -30 -3 -31 -2 -31 32 0 34 2 36 35 36 24 0 38 -5 42 -16z"/>
<path d="M876 413 c-3 -3 -6 -44 -6 -90 0 -67 3 -83 15 -83 11 0 15 11 15 40
l0 40 45 0 45 0 0 -40 c0 -22 5 -40 10 -40 6 0 10 37 10 91 0 57 -4 88 -10 84
-5 -3 -10 -22 -10 -41 0 -34 0 -34 -45 -34 -45 0 -45 0 -45 34 0 34 -11 52
-24 39z"/>
<path d="M1139 355 c-48 -107 -51 -115 -34 -115 8 0 17 11 21 25 5 21 12 25
45 25 33 0 41 -4 49 -25 9 -24 30 -35 30 -16 0 13 -61 154 -71 165 -5 6 -21
-18 -40 -59z m61 -41 c0 -2 -11 -4 -25 -4 -28 0 -30 8 -13 45 l12 26 13 -32
c7 -17 13 -33 13 -35z"/>
<path d="M1337 414 c-11 -11 -9 -174 3 -174 5 0 10 28 12 63 l3 62 28 -47 c15
-27 31 -48 35 -48 4 0 19 21 34 48 l27 47 1 -62 c0 -35 4 -63 10 -63 6 0 10
37 10 90 0 50 -3 90 -8 90 -4 0 -23 -25 -41 -56 l-34 -57 -23 39 c-35 60 -48
76 -57 68z"/>
<path d="M1727 414 c-4 -4 -7 -45 -7 -91 l0 -83 60 0 c33 0 60 4 60 10 0 6
-23 10 -51 10 -49 0 -50 1 -47 28 3 24 7 27 46 30 56 4 54 22 -3 22 -41 0 -45
2 -45 25 0 23 3 25 51 25 36 0 49 4 47 13 -5 13 -99 23 -111 11z"/>
<path d="M1910 412 c0 -4 13 -26 30 -48 l29 -41 -29 -34 c-32 -38 -36 -49 -17
-49 6 0 21 14 32 30 11 16 23 30 27 30 4 0 17 -13 30 -30 12 -16 28 -30 36
-30 8 0 2 16 -19 44 l-32 45 32 40 c17 22 27 42 22 45 -5 3 -22 -10 -38 -31
l-30 -36 -28 36 c-26 35 -45 47 -45 29z"/>
<path d="M2140 330 c0 -53 4 -90 10 -90 6 0 10 14 10 30 0 28 3 30 34 30 42 0
66 22 66 60 0 37 -32 60 -82 60 l-38 0 0 -90z m97 44 c10 -26 -11 -49 -46 -52
-30 -3 -31 -2 -31 32 0 34 2 36 35 36 24 0 38 -5 42 -16z"/>
<path d="M2348 414 c-5 -4 -8 -33 -8 -64 0 -72 25 -110 73 -110 38 0 50 7 66
37 14 27 15 143 1 143 -6 0 -10 -26 -10 -58 0 -66 -19 -102 -54 -102 -35 0
-49 24 -55 97 -3 35 -9 61 -13 57z"/>
<path d="M2588 414 c-5 -4 -8 -45 -8 -91 0 -66 3 -83 15 -83 10 0 15 16 17 60
l3 60 48 -60 c26 -33 52 -60 57 -60 6 0 10 38 10 90 0 53 -4 90 -10 90 -6 0
-10 -29 -10 -67 l-1 -68 -22 26 c-12 14 -38 44 -57 68 -19 23 -38 39 -42 35z"/>
<path d="M2865 408 c-32 -19 -44 -40 -45 -81 0 -73 76 -112 131 -68 30 24 19
39 -13 17 -31 -22 -53 -20 -78 6 -24 26 -26 56 -4 86 16 23 67 31 79 12 9 -15
35 -12 29 4 -5 14 -47 36 -67 36 -7 0 -21 -6 -32 -12z"/>
<path d="M3037 414 c-11 -12 3 -24 28 -24 23 0 24 -4 27 -72 2 -46 7 -73 16
-76 9 -3 12 16 12 72 0 72 1 75 25 78 14 2 27 8 28 13 2 11 -125 20 -136 9z"/>
<path d="M3260 331 c0 -54 4 -91 10 -91 6 0 10 35 10 84 0 47 -4 88 -10 91 -6
4 -10 -27 -10 -84z"/>
<path d="M3408 405 c-73 -40 -43 -165 39 -165 77 0 110 94 54 151 -33 32 -53
35 -93 14z m80 -28 c23 -27 24 -62 2 -90 -25 -32 -53 -34 -80 -7 -24 24 -26
67 -3 92 19 21 66 24 81 5z"/>
<path d="M3618 414 c-5 -4 -8 -45 -8 -91 0 -66 3 -83 15 -83 10 0 15 16 17 61
l3 62 48 -62 c27 -33 53 -61 58 -61 5 0 9 41 9 90 0 53 -4 90 -10 90 -6 0 -10
-29 -10 -67 l-1 -68 -22 26 c-12 14 -38 44 -57 68 -19 23 -38 39 -42 35z"/>
<path d="M3998 409 c-21 -12 -23 -40 -6 -57 9 -9 8 -16 -5 -30 -20 -22 -22
-55 -4 -70 7 -6 41 -10 74 -9 52 1 60 3 50 15 -6 8 -10 27 -9 43 2 16 -1 29
-7 29 -6 0 -11 -7 -11 -15 0 -21 -17 -19 -29 4 -8 14 -7 22 4 31 44 36 -7 88
-57 59z m47 -19 c4 -6 1 -17 -5 -26 -10 -11 -16 -12 -26 -3 -11 9 -11 15 -3
25 14 17 25 18 34 4z m9 -121 c-9 -15 -54 -10 -60 6 -4 8 -1 22 6 30 12 14 16
13 36 -6 13 -12 21 -26 18 -30z"/>
<path d="M4320 330 c0 -53 4 -90 10 -90 6 0 10 14 10 30 0 25 4 30 24 30 17 0
31 -10 43 -30 24 -41 50 -42 29 -1 -14 26 -14 32 0 59 11 24 12 35 3 55 -12
27 -35 37 -86 37 l-33 0 0 -90z m97 44 c10 -26 -11 -49 -46 -52 -30 -3 -31 -2
-31 32 0 34 2 36 35 36 24 0 38 -5 42 -16z"/>
<path d="M4537 414 c-4 -4 -7 -45 -7 -91 l0 -83 60 0 c33 0 60 4 60 10 0 6
-20 10 -45 10 -43 0 -45 1 -45 30 0 28 2 30 40 30 22 0 40 5 40 10 0 6 -18 10
-40 10 -36 0 -40 3 -40 25 0 23 4 25 46 25 32 0 44 4 42 13 -5 13 -99 23 -111
11z"/>
<path d="M4752 404 c-37 -26 -26 -66 22 -82 54 -17 69 -31 55 -48 -14 -17 -43
-18 -70 -4 -11 6 -24 8 -31 4 -15 -10 30 -33 65 -34 41 0 67 17 67 44 0 29
-17 44 -58 52 -43 9 -57 27 -36 48 15 16 27 15 72 -1 20 -8 14 15 -7 27 -28
14 -53 13 -79 -6z"/>
<path d="M4930 405 c0 -10 10 -15 30 -15 l30 0 0 -75 c0 -43 4 -75 10 -75 6 0
10 31 10 74 0 72 1 75 25 78 52 6 28 23 -37 26 -56 2 -68 0 -68 -13z"/>
<path d="M5171 394 c-41 -34 -44 -92 -6 -129 52 -53 135 -15 135 62 -1 42 -13
63 -47 81 -32 18 -48 15 -82 -14z m93 -26 c9 -12 16 -32 16 -43 0 -27 -35 -65
-60 -65 -27 0 -60 35 -60 63 0 60 72 91 104 45z"/>
<path d="M5390 330 c0 -53 4 -90 10 -90 6 0 10 14 10 30 0 25 4 30 23 30 15 0
29 -11 40 -30 10 -16 25 -30 33 -30 13 0 12 5 -4 33 -17 27 -18 34 -6 45 8 7
14 26 14 42 0 37 -32 60 -82 60 l-38 0 0 -90z m97 44 c10 -26 -11 -49 -46 -52
-30 -3 -31 -2 -31 32 0 34 2 36 35 36 24 0 38 -5 42 -16z"/>
<path d="M5653 408 c-5 -7 -17 -31 -26 -53 -8 -22 -23 -57 -31 -77 -14 -33
-14 -38 -1 -38 8 0 17 11 21 25 5 21 12 25 45 25 33 0 41 -4 49 -25 9 -23 30
-35 30 -17 0 11 -61 156 -70 165 -4 4 -11 2 -17 -5z m31 -75 c6 -20 4 -23 -18
-23 -29 0 -31 7 -14 45 12 27 19 23 32 -22z"/>
<path d="M5810 405 c0 -10 10 -15 30 -15 l30 0 0 -75 c0 -43 4 -75 10 -75 6 0
10 31 10 74 0 72 1 75 25 78 52 6 28 23 -37 26 -56 2 -68 0 -68 -13z"/>
<path d="M6030 331 c0 -54 4 -91 10 -91 6 0 10 35 10 84 0 47 -4 88 -10 91 -6
4 -10 -27 -10 -84z"/>
<path d="M6183 410 c-51 -21 -62 -110 -18 -147 36 -31 80 -30 110 3 35 38 34
87 -4 125 -30 30 -50 34 -88 19z m75 -33 c23 -27 24 -62 2 -90 -25 -32 -53
-34 -80 -7 -24 24 -26 67 -3 92 19 21 66 24 81 5z"/>
<path d="M6390 333 c0 -104 17 -128 22 -31 l3 63 49 -63 c27 -34 53 -62 57
-62 5 0 9 41 9 91 0 57 -4 88 -10 84 -5 -3 -10 -34 -10 -68 l-1 -62 -27 35
c-15 19 -42 50 -59 70 l-32 35 -1 -92z"/>
<path d="M6750 331 c0 -54 4 -91 10 -91 6 0 10 14 10 30 0 28 3 30 35 30 39 0
75 28 75 58 0 36 -25 54 -78 60 l-52 5 0 -92z m98 27 c3 -22 -2 -29 -22 -34
-39 -9 -56 1 -56 36 0 30 2 31 38 28 32 -3 37 -7 40 -30z"/>
<path d="M6960 330 c0 -53 4 -90 10 -90 6 0 10 14 10 30 0 25 4 30 24 30 17 0
31 -10 43 -30 24 -41 50 -42 29 -1 -14 26 -14 32 0 59 11 24 12 35 3 55 -12
27 -35 37 -86 37 l-33 0 0 -90z m97 44 c10 -26 -11 -49 -46 -52 -30 -3 -31 -2
-31 32 0 34 2 36 35 36 24 0 38 -5 42 -16z"/>
<path d="M7220 413 c-48 -18 -72 -81 -49 -124 44 -84 154 -54 154 42 0 57 -56
101 -105 82z m72 -47 c13 -20 8 -69 -9 -88 -34 -38 -93 -9 -93 46 0 36 7 48
35 64 20 11 52 1 67 -22z"/>
<path d="M7450 407 c-53 -27 -64 -89 -24 -136 24 -29 31 -31 80 -29 l54 2 0
43 c0 41 -1 43 -30 43 -16 0 -30 -4 -30 -10 0 -5 9 -10 20 -10 25 0 26 -12 2
-33 -39 -36 -92 -7 -92 49 0 55 39 82 85 58 32 -16 46 -10 24 11 -21 21 -61
27 -89 12z"/>
<path d="M7647 413 c-4 -3 -7 -44 -7 -90 0 -67 3 -83 15 -83 10 0 15 10 15 30
0 25 4 30 24 30 15 0 27 -7 31 -19 7 -23 33 -46 42 -38 3 4 -2 18 -11 33 -16
23 -16 27 -2 43 23 25 20 67 -6 85 -22 16 -89 22 -101 9z m98 -43 c9 -28 -11
-50 -46 -50 -26 0 -29 3 -29 35 0 33 2 35 34 35 26 0 36 -5 41 -20z"/>
<path d="M7879 338 c-19 -45 -35 -86 -37 -90 -2 -4 3 -8 11 -8 8 0 18 11 21
25 5 21 12 25 45 25 31 0 40 -5 49 -25 13 -28 36 -35 28 -7 -16 48 -66 157
-74 160 -5 1 -25 -34 -43 -80z m60 2 c10 -29 9 -30 -19 -30 -27 0 -28 1 -17
30 6 17 14 30 18 30 4 0 12 -13 18 -30z"/>
<path d="M8080 330 c0 -102 17 -124 22 -27 l3 62 25 -44 c14 -24 29 -45 35
-45 5 -1 21 19 35 44 l25 45 3 -62 c2 -35 7 -63 12 -63 13 0 13 167 1 175 -5
3 -24 -20 -41 -50 -17 -30 -33 -55 -35 -55 -2 0 -18 25 -35 55 -17 30 -36 55
-41 55 -5 0 -9 -40 -9 -90z"/>
<path fill="white" d="M910 1923 c-26 -57 -70 -166 -67 -169 1 -1 23 42 49 97 25 54 43 99 39 99 -4 0 -14 -12 -21 -27z"/>
<path fill="white" d="M2725 1819 c-4 -6 -5 -12 -2 -15 2 -3 7 2 10 11 7 17 1 20 -8 4z"/>
<path fill="white" d="M4200 1775 c-17 -25 -69 -88 -116 -140 -46 -53 -84 -99 -84 -102 0 -26 194 198 229 265 20 37 4 25 -29 -23z"/>
<path fill="white" d="M2682 1713 c-31 -81 -77 -252 -70 -259 3 -2 17 42 33 99 15 56 39 131 52 166 13 35 21 66 19 68 -2 2 -17 -31 -34 -74z"/>
<path fill="white" d="M1946 1724 c-21 -62 -13 -69 9 -9 10 25 15 48 13 51 -3 3 -13 -16 -22 -42z"/>
<path fill="white" d="M815 1690 c-9 -28 -15 -54 -12 -56 3 -3 12 18 21 47 20 69 13 76 -9 9z"/>
<path fill="red" d="M4123 2128 c-58 -56 -219 -250 -294 -358 -50 -71 -183 -320 -171 -320 16 0 93 31 123 49 60 36 218 191 279 274 105 141 174 309 156 381 -9 38 -31 32 -93 -26z"/>

<!-- <text x="165" y="-240" style="font-size:15.5em;transform:scale(1,-1);letter-spacing:50px;font-family:Arial;">DURHAM EXPUNCTION &amp; RESTORATION PROGRAM</text> -->
</g>
</svg>
