<?xml version="1.0" standalone="no"?>
<!DOCTYPE svg PUBLIC "-//W3C//DTD SVG 20010904//EN"
 "http://www.w3.org/TR/2001/REC-SVG-20010904/DTD/svg10.dtd">
<svg version="1.0" xmlns="http://www.w3.org/2000/svg" width="852pt" height="266pt" viewBox="0 0 852 266" preserveAspectRatio="xMidYMid meet">

<g transform="translate(0,266) scale(.1,-.1)"
fill="#00919F" stroke="none">
<path d="M7540 2350 c-63 -10 -203 -32 -310 -50 -189 -30 -207 -32 -570 -36 -206 -2 -514 -11 -685 -19 -170 -8 -396 -19 -501 -25 -315 -15 -748 -21 -924 -13 l-165 8 3 -79 c3 -62 -1 -92 -18 -140 -34 -92 -77 -174 -130 -246 -59 -80 -212 -230 -234 -230 -8 0 -39 -17 -67 -39 -63 -47 -181 -107 -231 -115 l-37 -7 31 -52 c55 -93 145 -220 212 -298 l66 -76 97 14 c229 31 633 73 830 84 172 10 246 10 395 0 277 -20 298 -26 128 -34 -245 -12 -881 -57 -1215 -87 -172 -15 -192 -15 -210 -1 -11 9 -3 -3 19 -26 21 -23 44 -40 50 -37 6 2 61 8 121 13 61 5 118 12 128 16 l17,0 165,14 315,28 c173 16 378 35 455 42 135 14 536 48 700 60 44 3 164 15 268 26 103 11 191 17 197 14 10 -6 1211 71 1270 82 83 15 288 108 345 158 l30 26 -405 -6 c-484 -6 -980 -22 -1070 -35 -36 -5 -112 -11 -170 -14 -184 -9 -34 10 470 58 85 8 256 22 380 31 124 8 275 20 335 25 61 6 214 13 340 16 l230 6 77 78 c210 214 193 415 -43 504 -43 16 -51 16 -135 1 -49 -9 -99 -19 -110 -22 -30 -7 -49 50 -40 123 5 40 3 54 -6 54 -7 0 -53 -4 -103 -9 -195 -20 -752 -58 -950 -65 l-140 -5 195 18 c280 27 470 48 760 85 l255 32 3 41 c9 116 -140 157 -418 113z m-837 -297 c-13 -2 -33 -2 -45 0 -13 2 -3 4 22 4 25 0 35 -2 23 -4z"/>
<path d="M3890 2188 c0 -4 -6 -13 -14 -21 -28 -27 -54 -80 -48 -95 3 -10 1 -13 -6 -8 -7 4 -29 -30 -61 -97 -62 -129 -124 -278 -118 -283 2 -3 16 23 31 57 32 75 45 73 16 -2 -31 -83 -24 -80 33 15 28 49 83 127 120 174 38 46 80 103 95 126 14 23 47 64 74 91 l47 50 -84 0 c-47 0 -85 -3 -85 -7z"/>

<path fill="#ff000066" d="
  M 3515 2155
  l -300 -35
  -111 -10
  -128 -16
  -272 -35
  -426 -32
  -269 -17
  -294 -10
  -168 -4
  -66 -8
  -156 -6

  L 1208 1963
  c4 9 -84 8 -118 -2
  l -223 -12
  c -1 -1 -18 -5 -37 -9
  -19 -5 -87 -16 -150 -26
  -314 -46 -494 -124 -551 -237
  -73 -142 93 -315 396 -413
  c 67 -22 102 -38 106 -51
  l -15 -122

  c4 13 -5 14 -73 7
  -100 -11 -156 -32 -188 -69
  -30 -36 -32 -75 -9 -181
  8 -40 13 -89 10 -108
  l-5 -35
  152 3
  c204 5 446 -13 617 -44
  l141 -26
  547 37
  c301 20 628 43 727 50
  99 8 356 28 570 45
  215 17 463 37 552 44
  90 7 166 16 170 19
  4 4 -2 16 -13 26
  -18 17 -27 17 -154 5
  -74 -7 -155 -16 -180 -19
  -25 -4 -42 -4 -39 -1
  9 9 320 58 335 52
  9 -3 4 10 -11 32
  -14 20 -25 42 -25 49
  0 7 -14 36 -31 65
  -45 76 -119 229 -119 247
  -2 45 -90 -194 -110 -296
  -11 -54 -15 -61 -44 -71
  -43 -16 -67 -15 -93 3
  -38 27 -38 70 2 239
  41 179 38 166 75 266
  16 41 50 142 76 224
  27 82 58 164 70 182
  12 17 25 42 29 55
  4 13 32 77 61 142
  30 65 54 123 54 128
  0 11 -43 10 -195 -6
z"/>
<!-- <path fill="none" stroke="black" stroke-width="5" d="
  M3515 2155
  l -300 -35
  -111 -10
  -128 -16  # (2976, 2094)
  -272 -35  # (2704, 2059)
  -426 -32  # (2278, 2027)
  -269 -17  # (2009, 2010)
  -294 -10  # (1715, 2000)
  -168 -4   # (1547, 1996)
  -66 -8    # (1481, 1988)
  -156 2    # (1325, 1990)
z"/> -->
<path fill="none" stroke="black" stroke-width="5" d="
  M3515 2155
  l -300 -35
  -111 -10
  -128 -16
  -272 -35
  -426 -32
  -269 -17
  -294 -10
  -168 -4
  -66 -8
  l -156 -6

  L 1208 1963
  c4 9 -84 8 -118 -2
  l -223 -12
  c -1 -1 -18 -5 -37 -9
  -19 -5 -87 -16 -150 -26
  -314 -46 -494 -124 -551 -237
  -73 -142 93 -315 396 -413
  c 67 -22 102 -38 106 -51
  l -15 -122

  l-73 7
  -188 -69
  -9 -181
  10 -108
  l-5 -35
  152 3
  l 617 -44
  l141 -26
  547 37
  l 727 50
  570 45
  552 44
  170 19
  -13 26
z"/>
-154 5
-180 -19
-39 -1
335 52
-11 32
-25 49
-31 65
-119 247
-110 -296
-44 -71
-93 3
2 239
75 266
76 224
70 182
29 55
61 142
54 128
-195 -6
<!-- <path stroke="red" stroke-width="5" d="M 1325, 1990 l -117 -27"/> -->
<!-- <path stroke="red" stroke-width="5" d="M 631, 1213 l -15 -122"/> -->
</g>
</svg>
